<?xml version="1.0" ?><svg data-name="Layer 1" id="Layer_1" viewBox="0 0 32 32" xmlns="http://www.w3.org/2000/svg"><path d="M29,12h0l-9.15.09L17,2.71A1,1,0,0,0,16,2h0a1,1,0,0,0-1,.71L12.26,12H3a1,1,0,0,0-.6,1.8l7.54,5.58L7,28.7a1,1,0,0,0,.38,1.12A1,1,0,0,0,8,30a1,1,0,0,0,.6-.2L16,24.25l7.4,5.55a1,1,0,0,0,1.17,0A1,1,0,0,0,25,28.71l-2.8-9.33L29.6,13.8A1,1,0,0,0,29,12Zm-8.6,6.2A1,1,0,0,0,20,19.29l2.13,7.09L16.6,22.2a1,1,0,0,0-1.2,0L9.87,26.35l2.19-7a1,1,0,0,0-.36-1.1L6,14h7a1,1,0,0,0,1-.71L16,6.44l2.13,7a1,1,0,0,0,1,.71L26,14Z"/></svg>