<?xml version="1.0" ?><svg viewBox="0 0 256 256" xmlns="http://www.w3.org/2000/svg"><g><path d="m236.54 83.38c-1.29-1.45-6-2.52-12.32-3.32a3.23 3.23 0 0 1 -2.83-3.06c-.11-2.89-.71-6.31-1.49-7-1.3-1.15-30-2.31-31.34-1.15-.69.62-1.38 3.34-1.64 6a3.21 3.21 0 0 1 -3.29 2.89c-7.61-.2-13.55-.32-15.54-.49-13.81-1.23-17.8-27.16-23.63-32.38s-58.46-3.69-64.31 1.53c-4.51 4.04-14.84 30.13-24.55 31.6-15.23 2.33-28.92 2.24-34.5 10-5.1 7.08-11.92 114.32 1.22 130.09 9.21 11 204 5.23 210.08-.12 14.41-12.76 7.84-130.43 4.14-134.59z" fill="#191919"/><path d="m103.62 232.37c-23.45 0-43.68-.55-58-1.64-20.79-1.57-26.39-3.86-29.45-7.53-7.12-8.55-10.26-33.32-9.32-73.61.34-14.42 1.21-29.09 2.46-41.32 2.09-20.55 4.1-23.32 5.29-25 6.5-9 18.43-10.47 31.05-12 2.78-.34 5.66-.7 8.56-1.14 3.4-1.48 10.18-13.46 12.75-18 3.52-6.23 5.47-9.57 7.85-11.7 4.38-3.92 16.92-6.18 37.28-6.72 31-.81 35.87 3.54 37.7 5.18 3.34 3 5.34 7.72 7.86 13.71s6.87 16.28 11.14 16.66c1.31.12 5.52.22 10.39.35h.48c1.11-4.6 2.88-6.19 3.57-6.79 2.17-1.93 3.36-3 21.3-2.31 17.55.67 18.73 1.72 20.68 3.46.79.71 2.93 2.61 3.82 8.68 7.31 1.18 11.12 2.74 13.49 5.4 1.7 1.91 4 4.52 5.84 40a603.34 603.34 0 0 1  .19 63.16c-1 17.32-3.13 35.94-10.85 42.78-2.12 1.88-3.8 3.36-28.23 5.13-13.49 1-31.73 1.84-51.38 2.43-19.14.54-37.64.82-54.47.82zm-75.62-20.18c7.24 2.59 41 4.86 100.71 4 51.09-.76 90-3.31 98.92-5 2.36-4.57 5.94-21.71 5.68-61.6-.18-28.13-2.11-52.32-3.44-60.44a63.85 63.85 0 0 0 -6.64-1.15 11.2 11.2 0 0 1 -9.83-10.71c0-.08 0-.17 0-.25-5.13-.41-13.39-.73-18.6-.72a11.26 11.26 0 0 1 -11.37 9.41l-4.63-.12c-6.3-.16-9.67-.25-11.41-.4-13.86-1.23-20-15.77-24.47-26.38a70.15 70.15 0 0 0 -3.53-7.61c-3.09-.92-12.73-1.89-27.05-1.5-14.47.39-24.12 1.89-27.05 3-1 1.42-2.94 4.8-4.38 7.34-6.46 11.4-13.77 24.33-24.08 25.9-3.18.49-6.23.86-9.19 1.23-8.7 1.07-16.93 2.09-19.72 5.12-1.76 5.27-4.54 30.42-5.1 60.2-.75 38.62 2.79 55.33 5.18 59.68z" fill="#191919"/></g><g><path d="m236.54 83.38c-1.29-1.45-6-2.52-12.32-3.32a3.23 3.23 0 0 1 -2.83-3.06c-.11-2.89-.71-6.31-1.49-7-1.3-1.15-30-2.31-31.34-1.15-.69.62-1.38 3.34-1.64 6a3.21 3.21 0 0 1 -3.29 2.89c-7.61-.2-13.55-.32-15.54-.49-13.81-1.23-17.8-27.16-23.63-32.38s-58.46-3.69-64.31 1.53c-4.51 4.04-14.84 30.13-24.55 31.6-15.23 2.33-28.92 2.24-34.5 10-5.1 7.08-11.92 114.32 1.22 130.09 9.21 11 204 5.23 210.08-.12 14.41-12.76 7.84-130.43 4.14-134.59z" fill="#e83a2a"/></g><path d="m111.77 89c36.23 1.89 55.23 24.6 55.86 54.68.75 36.87-23.32 59.54-56.47 58.93s-57.7-27.61-57.08-57.09 23.97-58.19 57.69-56.52z" fill="#191919"/><path d="m112.44 210.61h-1.44a66.41 66.41 0 0 1 -47-20.38 63.48 63.48 0 0 1 -17.92-44.87 67.85 67.85 0 0 1  21.42-48 60.58 60.58 0 0 1  44.69-16.27c38.39 2 62.7 25.88 63.45 62.46.41 20.16-5.83 37.28-18 49.52-11.4 11.33-27.39 17.54-45.2 17.54zm-3.56-113.61a44.06 44.06 0 0 0 -30.48 12 52.48 52.48 0 0 0 -16.32 36.65 47.38 47.38 0 0 0  13.46 33.45 50.52 50.52 0 0 0  35.78 15.47c14.18.26 26.28-4.19 34.95-12.87 9.07-9.09 13.7-22.19 13.38-37.9-.58-27.8-18.65-45.26-48.28-46.8q-1.27 0-2.49 0z" fill="#191919"/><path d="m111.77 89c36.23 1.89 55.23 24.6 55.86 54.68.75 36.87-23.32 59.54-56.47 58.93s-57.7-27.61-57.08-57.09 23.97-58.19 57.69-56.52z" fill="#fff"/><path d="m111.56 102.54c27.6 1.4 42.1 18.71 42.57 41.64.57 28.1-17.78 45.38-43 44.91s-44-21.05-43.51-43.51 18.23-44.34 43.94-43.04z" fill="#191919"/><g><path d="m137.49 135.09c2.56-10.29-12.3-20.9-25.65-20.9-12.54 0-25.65 9.17-25.65 18.6 0 10.95 12.73-3.33 25.2-2.69 15.02.76 23.77 14.35 26.1 4.99z" fill="#fff"/></g><g><path d="m200.08 95.65c9.65 0 13.37 6.92 14 13s-4.25 13.67-12.15 13.67-15.49-5.11-15.19-13.34a13.6 13.6 0 0 1 13.34-13.33z" fill="#fff"/></g></svg>