<?xml version="1.0" ?><!DOCTYPE svg  PUBLIC '-//W3C//DTD SVG 1.1//EN'  'http://www.w3.org/Graphics/SVG/1.1/DTD/svg11.dtd'><svg enable-background="new 0 0 512 512" height="25px" id="sketch" version="1.1" viewBox="0 0 512 512" width="25px" xml:space="preserve" xmlns="http://www.w3.org/2000/svg" xmlns:xlink="http://www.w3.org/1999/xlink"><path d="M459.351,149.35l-36.63-36.63c-2.04-2.04-4.75-3.16-7.63-3.16s-5.59,1.12-7.63,3.16l-22.84,22.84l-80.39-80.39  c-0.17-0.17-0.36-0.32-0.551-0.45c-0.06-0.04-0.119-0.07-0.18-0.11c-0.15-0.09-0.3-0.17-0.46-0.24c-0.06-0.03-0.12-0.06-0.19-0.09  c-0.209-0.08-0.43-0.15-0.649-0.2c0,0-0.011,0-0.021,0c-0.229-0.05-0.459-0.07-0.699-0.07c-0.03,0-0.051-0.01-0.08-0.01H80.871  c-17.3,0-31.37,14.07-31.37,31.37v341.26c0,17.3,14.07,31.37,31.37,31.37h276.86c17.299,0,31.379-14.07,31.379-31.37v-191.8  l44.271-44.27l25.96-25.96C463.551,160.39,463.551,153.55,459.351,149.35z M305.401,67.66l70.05,70.05h-56.36  c-7.55,0-13.689-6.15-13.689-13.7V67.66z M381.11,426.63c0,12.89-10.489,23.37-23.379,23.37H80.871  c-12.89,0-23.37-10.48-23.37-23.37V85.37c0-12.89,10.48-23.37,23.37-23.37h216.53v62.01c0,11.97,9.729,21.7,21.689,21.7h55.391  L234.551,285.641c-0.66,0.659-1.23,1.43-1.73,2.35c-0.03,0.05-0.07,0.09-0.1,0.14c-0.13,0.22-0.31,0.55-0.44,0.89  c-0.09,0.201-0.23,0.49-0.35,0.871l-12.87,38.629c0,0.021-0.01,0.041-0.02,0.061l-5.41,16.22c-0.82,2.46-0.73,5.03,0.18,7.341  c0.02,0.029,0.02,0.069,0.04,0.1c0.13,0.32,0.28,0.63,0.45,0.939c0.03,0.07,0.06,0.141,0.1,0.211c0.15,0.279,0.33,0.539,0.51,0.799  c0.06,0.101,0.11,0.201,0.18,0.291c0,0.01,0,0.01,0.01,0.01c0.18,0.26,0.39,0.49,0.59,0.73c0.07,0.09,0.14,0.18,0.22,0.27  c0.21,0.23,0.43,0.43,0.65,0.63c0.1,0.09,0.18,0.18,0.27,0.26c0.22,0.19,0.46,0.36,0.69,0.53c0.11,0.08,0.21,0.17,0.32,0.25  c0.22,0.14,0.44,0.26,0.67,0.39c0.14,0.08,0.28,0.181,0.42,0.25c0.2,0.101,0.4,0.181,0.6,0.271c0.18,0.08,0.37,0.17,0.56,0.25  c0.11,0.039,0.23,0.07,0.34,0.1c1.09,0.37,2.23,0.58,3.4,0.58c1.16,0,2.32-0.189,3.44-0.561l54.91-18.31  c0.28-0.09,0.57-0.21,0.87-0.351c0.19-0.069,0.37-0.159,0.54-0.239l0.11-0.05c0.03-0.02,0.06-0.04,0.09-0.061  c0.021-0.01,0.05-0.02,0.069-0.029c0.08-0.041,0.15-0.101,0.23-0.141c0.08-0.05,0.17-0.1,0.24-0.15c0.76-0.449,1.47-0.969,2.09-1.59  l94.689-94.689V426.63z M227.411,328.76l10.46-31.38l36.81,36.81l-31.37,10.471L227.411,328.76z M234.821,347.48l-10.08,3.359  c-0.45,0.15-0.91,0.189-1.34,0.12c-0.71-0.12-1.37-0.521-1.82-1.149c-0.04-0.061-0.08-0.121-0.12-0.19  c-0.03-0.05-0.07-0.11-0.1-0.181c0-0.01-0.01-0.02-0.02-0.029c-0.11-0.23-0.21-0.52-0.25-0.85c0-0.021,0-0.031-0.01-0.051  c0-0.07,0-0.15-0.01-0.23v-0.149c0-0.03,0.01-0.06,0.01-0.101c0.02-0.219,0.06-0.449,0.15-0.699l3.36-10.08L234.821,347.48z   M389.11,223.52l-8,8l-98.899,98.89l-40.56-40.561L381.11,150.39l3.23-3.23l4.77,4.77l35.791,35.8L389.11,223.52z M453.681,158.94  l-23.119,23.13l-40.57-40.56l23.13-23.13c1.05-1.06,2.89-1.06,3.94,0l36.629,36.63C454.771,156.09,454.771,157.86,453.681,158.94z"/></svg>