<?xml version="1.0" ?><!DOCTYPE svg  PUBLIC '-//W3C//DTD SVG 1.1//EN'  'http://www.w3.org/Graphics/SVG/1.1/DTD/svg11.dtd'><svg enable-background="new 0 0 90 90" height="25px" id="Layer_1" version="1.1" viewBox="0 0 90 90" width="25px" xml:space="preserve" xmlns="http://www.w3.org/2000/svg" xmlns:xlink="http://www.w3.org/1999/xlink"><path d="M76.741,4.299H13.258L4.226,65.717l8.849,15.358c1.645,2.848,4.712,4.619,8.008,4.624h47.836  c3.293-0.005,6.36-1.776,8.006-4.626l8.849-15.356L76.741,4.299z M73.721,79.224c-0.987,1.709-2.83,2.773-4.808,2.776H21.086  c-1.978-0.003-3.82-1.067-4.806-2.774L8.073,64.983L16.453,8h57.093l7.073,48.1h-7.836c-0.356-1.767-1.221-3.39-2.522-4.69  l-7.919-7.918c-1.746-1.748-4.069-2.71-6.54-2.71c-2.472,0-4.795,0.962-6.541,2.71l-3.951,3.952l-3.951-3.952  c-1.747-1.748-4.07-2.71-6.541-2.71s-4.794,0.962-6.541,2.71l-7.917,7.918c-1.747,1.744-2.709,4.066-2.709,6.54v1.85h63.512  l0.763,5.185L73.721,79.224z M51.799,56.1c-0.356-1.767-1.221-3.39-2.522-4.689l-1.351-1.352l3.952-3.952  c1.048-1.048,2.441-1.625,3.924-1.625c1.481,0,2.875,0.577,3.923,1.626l7.92,7.919c0.596,0.595,1.038,1.301,1.31,2.073H51.799z   M46.66,54.026c0.596,0.595,1.038,1.301,1.31,2.073H21.665c0.272-0.772,0.715-1.479,1.311-2.074l7.918-7.919  c1.048-1.048,2.441-1.625,3.924-1.625s2.876,0.577,3.924,1.625L46.66,54.026z"/></svg>